<svg width="87" height="105" viewBox="0 0 87 105" fill="none" xmlns="http://www.w3.org/2000/svg">
<path d="M22.3443 79.236C11.4098 71.9444 3.56558 58.8194 3.56558 44.4791C3.56558 21.8749 21.3934 3.64575 43.5 3.64575C65.6066 3.64575 83.4344 21.8749 83.4344 44.4791C83.4344 61.2499 73.4508 75.8333 59.1885 82.1527" stroke="black" stroke-width="3" stroke-miterlimit="10" stroke-linecap="round" stroke-linejoin="round"/>
<path d="M37.5574 74.3749C24.0082 71.4583 13.7869 59.3055 13.7869 44.4791C13.7869 29.8958 24.0082 17.4999 37.5574 14.5833" stroke="#1E88C9" stroke-width="3" stroke-miterlimit="10" stroke-linecap="round" stroke-linejoin="round"/>
<path d="M49.4426 14.5833C62.9918 17.4999 73.2131 29.6527 73.2131 44.4791C73.2131 60.2777 62.5164 73.1596 47.541 74.861" stroke="#1E88C9" stroke-width="3" stroke-miterlimit="10" stroke-linecap="round" stroke-linejoin="round"/>
<path d="M43.7377 15.7985C44.5254 15.7985 45.1639 15.1456 45.1639 14.3402C45.1639 13.5348 44.5254 12.8818 43.7377 12.8818C42.95 12.8818 42.3115 13.5348 42.3115 14.3402C42.3115 15.1456 42.95 15.7985 43.7377 15.7985Z" fill="#1E88C9"/>
<path d="M44.4508 24.0625L48.9672 38.1597H63.2295L51.582 46.6667L56.0984 60.7639L44.4508 52.0139L32.8033 60.7639L37.3197 46.6667L25.6721 38.1597H39.9344L44.4508 24.0625Z" stroke="#1E88C9" stroke-width="3" stroke-miterlimit="10" stroke-linecap="round" stroke-linejoin="round"/>
<path d="M31.8525 79.2361H20.6803V101.597H31.8525V79.2361Z" stroke="black" stroke-width="3" stroke-miterlimit="10" stroke-linecap="round" stroke-linejoin="round"/>
<path d="M31.8525 81.1804L33.9918 79.9651L42.5492 65.8679C42.5492 65.8679 52.2951 67.0832 46.5902 77.0485C46.5902 77.0485 45.8771 78.9929 48.4918 78.9929H55.1476C55.1476 78.9929 59.9017 78.9929 59.1885 85.7985L57.0492 96.979C57.0492 96.979 55.8607 100.868 50.3935 100.382H42.3115C42.3115 100.382 39.6967 100.139 36.6066 98.6804H31.8525V81.1804Z" stroke="black" stroke-width="3" stroke-miterlimit="10" stroke-linecap="round" stroke-linejoin="round"/>
</svg>
