<svg width="98" height="89" viewBox="0 0 98 89" fill="none" xmlns="http://www.w3.org/2000/svg">
<g clip-path="url(#clip0_47_1750)">
<path d="M0 44.8638C0.492462 43.4087 1.23116 41.9537 2.70854 40.9837C3.44724 40.4986 4.18593 40.2561 4.92462 40.0136C18.7136 36.1335 32.2563 31.2834 45.3065 25.2207C54.6633 20.8556 63.5276 15.5204 71.8995 9.21526C72.1457 8.97275 72.392 8.73025 72.8844 8.48774C72.1457 7.51771 71.407 6.54768 70.6683 5.82016C69.9297 4.85014 69.4372 3.88011 69.6834 2.66758C69.9297 1.21253 71.1608 0.242507 72.6382 0.242507C78.0553 0 83.2261 0 88.397 0C90.8593 0 92.3367 2.18256 91.8442 4.60763C90.8593 9.45777 89.6281 14.3079 88.6432 19.158C88.397 20.6131 87.4121 21.5831 86.1809 21.8256C84.7035 22.0681 83.7186 21.5831 82.7337 20.6131C81.995 19.6431 81.2563 18.673 80.2714 17.703C80.0251 17.9455 79.7789 18.188 79.5327 18.188C76.0854 20.6131 72.8844 23.2807 69.4372 25.7057C68.206 26.6758 66.9749 26.4332 66.2362 25.2207C65.7437 24.2507 65.99 23.2807 67.2211 22.5531C69.6834 20.8556 72.1457 19.158 74.608 17.218C75.593 16.4905 76.5779 15.7629 77.3166 15.0354C79.5327 13.3379 81.5025 13.5804 83.2261 15.5204C83.7186 16.0054 84.2111 16.733 84.9498 17.4605C85.9347 12.8529 86.9196 8.48774 87.9045 3.88011C83.2261 3.88011 78.5477 3.88011 73.6231 3.88011C74.1156 4.60763 74.608 5.33515 75.1005 5.82016C76.8241 8.00273 76.5779 9.94278 74.3618 11.8828C64.0201 20.3706 51.9548 26.6758 39.397 32.2534C28.5628 36.861 17.4824 40.7411 6.40201 43.8937C5.90955 44.1362 5.41709 44.1362 4.92462 44.3787C4.18593 44.8638 3.9397 45.3488 3.9397 46.3188C4.18593 47.0463 4.67839 47.7738 5.66332 47.7738C5.90955 47.7738 6.40201 47.7738 6.64824 47.5313C22.407 43.6512 37.9196 38.3161 52.4472 31.0409C52.6935 30.7984 53.1859 30.7984 53.6784 30.5559C54.6633 30.3134 55.402 30.5559 55.8945 31.5259C56.3869 32.2534 56.1407 33.2234 55.402 33.7084C55.1558 33.951 54.6633 34.1935 54.4171 34.1935C40.1357 41.2262 25.1156 46.5613 9.60302 50.4414C8.86432 50.6839 7.8794 50.9264 7.1407 51.1689C4.18593 51.8965 1.47739 50.1989 0.492462 47.2888C0.492462 47.0463 0.246231 46.8038 0.246231 46.8038C0 46.0763 0 45.3488 0 44.8638Z" fill="#1E88C9"/>
<path d="M93.8141 49.9564C93.8141 55.049 93.8141 60.1417 93.8141 65.2343C93.8141 65.9619 94.0603 66.4469 94.5528 66.9319C98.4925 71.0545 99.2312 77.3597 96.2764 82.2098C93.3216 87.3025 87.4121 89.7275 81.7488 88.515C73.3769 86.8174 68.6985 76.8747 73.1307 69.357C73.6231 68.3869 74.6081 67.4169 75.3467 66.6894C75.8392 66.2044 76.0854 65.7193 76.0854 64.9918C76.0854 55.2915 76.0854 45.3488 76.0854 35.6485C76.0854 31.0409 78.794 28.3733 83.4724 28.3733C84.7035 28.3733 86.1809 28.3733 87.4121 28.3733C91.598 28.3733 94.3065 31.0409 94.3065 35.1635C93.8141 40.2561 93.8141 45.1063 93.8141 49.9564ZM89.8744 63.7793C89.8744 63.2943 89.8744 62.8093 89.8744 62.5668C89.8744 57.9591 89.8744 53.3515 89.8744 48.7439C89.8744 44.3787 89.8744 39.7711 89.8744 35.406C89.8744 33.4659 88.8895 32.4959 86.9196 32.4959C85.4422 32.4959 84.2111 32.4959 82.7337 32.4959C80.2714 32.4959 79.2864 33.4659 79.2864 35.891C79.2864 44.8638 79.2864 53.8365 79.2864 62.5668C79.2864 62.8093 79.2864 63.2943 79.2864 63.7793C82.9799 62.3242 86.4271 62.3242 89.8744 63.7793ZM84.4573 85.1199C89.6281 85.1199 94.0603 80.9973 94.0603 75.9046C94.0603 70.5695 89.8744 66.4469 84.7035 66.2044C79.5327 66.2044 75.1005 70.327 75.1005 75.6621C74.8543 80.7548 79.2864 85.1199 84.4573 85.1199Z" fill="black"/>
<path d="M50.9698 65.7192C50.9698 60.3841 50.9698 55.0489 50.9698 49.7138C50.9698 45.3487 53.9246 42.4386 58.1106 42.6811C59.5879 42.6811 61.0653 42.6811 62.5427 42.6811C66.4824 42.6811 69.191 45.3487 69.191 49.2288C69.191 60.3841 69.191 71.5394 69.191 82.9372C69.191 84.3923 68.4523 85.1198 66.9749 85.1198C62.2965 85.1198 57.8643 85.1198 53.1859 85.1198C51.7085 85.1198 50.9698 84.3923 50.9698 82.9372C50.9698 77.117 50.9698 71.2969 50.9698 65.7192ZM65.2513 81.2397C65.2513 80.9972 65.2513 80.9972 65.2513 80.7546C65.2513 70.0843 65.2513 59.6566 65.2513 48.9863C65.2513 47.2887 64.2663 46.3187 62.5427 46.3187C61.0653 46.3187 59.5879 46.3187 57.8643 46.3187C55.6482 46.3187 54.6633 47.2887 54.6633 49.4713C54.6633 59.6566 54.6633 69.8418 54.6633 80.2696C54.6633 80.5121 54.6633 80.9972 54.6633 81.2397C58.3568 81.2397 61.804 81.2397 65.2513 81.2397Z" fill="black"/>
<path d="M44.3216 71.0545C44.3216 74.9346 44.3216 78.5722 44.3216 82.4523C44.3216 84.3923 43.5829 85.1199 41.8593 85.1199C37.4271 85.1199 32.995 85.1199 28.5628 85.1199C26.8392 85.1199 26.1005 84.3923 26.1005 82.6948C26.1005 74.9346 26.1005 67.4169 26.1005 59.6566C26.1005 56.2616 28.0703 53.8365 31.0251 53.109C32.5025 52.8665 33.9799 52.8665 35.4573 52.8665C36.6884 52.8665 37.9196 52.8665 39.1507 53.109C42.3518 53.8365 44.0754 56.2616 44.0754 59.6566C44.3216 63.2943 44.3216 67.1744 44.3216 71.0545ZM40.3819 81.2398C40.3819 80.9973 40.3819 80.9972 40.3819 80.7547C40.3819 73.4795 40.3819 66.4468 40.3819 59.1716C40.3819 57.4741 39.397 56.5041 37.6734 56.5041C36.196 56.5041 34.7186 56.5041 33.2412 56.5041C30.7789 56.5041 29.794 57.4741 29.794 59.8992C29.794 66.6893 29.794 73.4795 29.794 80.2697C29.794 80.5122 29.794 80.9973 29.794 81.2398C33.4874 81.2398 36.9347 81.2398 40.3819 81.2398Z" fill="black"/>
<path d="M19.6985 74.6922C19.6985 77.3597 19.6985 80.0273 19.6985 82.4524C19.6985 84.3924 18.9598 84.8775 17.2362 84.8775C12.804 84.8775 8.37186 84.8775 3.9397 84.8775C1.96985 84.8775 1.47739 84.1499 1.47739 82.4524C1.47739 77.3597 1.47739 72.2671 1.47739 67.1745C1.47739 63.0519 3.9397 60.6268 7.8794 60.3843C9.84925 60.3843 11.8191 60.3843 13.7889 60.3843C16.7437 60.6268 19.4523 63.0519 19.4523 65.9619C19.6985 68.872 19.4523 71.7821 19.6985 74.6922C19.6985 74.6922 19.4523 74.6922 19.6985 74.6922ZM15.7588 81.2399C15.7588 76.3897 15.7588 71.5396 15.7588 66.6895C15.7588 65.2344 14.5276 64.2644 13.0503 64.2644C11.5729 64.2644 9.84925 64.2644 8.37186 64.2644C6.15578 64.2644 5.17085 65.2344 5.17085 67.417C5.17085 71.7821 5.17085 76.1472 5.17085 80.5123C5.17085 80.7548 5.17085 80.9973 5.17085 81.4824C8.86432 81.2398 12.3116 81.2399 15.7588 81.2399Z" fill="black"/>
<path d="M62.789 28.6158C62.789 29.5859 61.804 30.5559 60.8191 30.5559C59.8342 30.5559 58.8492 29.5859 58.8492 28.6158C58.8492 27.6458 59.8342 26.6758 60.8191 26.6758C61.804 26.6758 62.789 27.6458 62.789 28.6158Z" fill="#1E88C9"/>
<path d="M83.2261 77.1172C84.2111 75.6621 85.196 74.2071 86.1809 72.7521C86.6734 72.0245 87.4121 71.5395 87.9045 71.0545C88.8895 70.327 89.8744 70.5695 90.6131 71.297C91.3518 72.0245 91.3518 73.2371 90.3668 73.9646C88.6432 75.4196 87.4121 77.6022 86.6734 79.5422C86.1809 80.9973 84.7035 81.7248 83.2261 81.2398C81.995 80.7548 80.5176 80.2698 79.2864 79.7848C78.3015 79.2997 77.809 78.3297 78.0553 77.3597C78.5477 76.3897 79.5327 75.9046 80.5176 76.3897C81.5025 76.3897 82.4874 76.6322 83.2261 77.1172Z" fill="black"/>
</g>
<defs>
<clipPath id="clip0_47_1750">
<rect width="98" height="89" fill="white"/>
</clipPath>
</defs>
</svg>
