<svg width="97" height="101" viewBox="0 0 97 101" fill="none" xmlns="http://www.w3.org/2000/svg">
<g clip-path="url(#clip0_47_1738)">
<path d="M76.8848 53.3117C80.0138 50.3874 85.1544 51.0622 86.7189 56.011C86.9424 55.7861 87.1659 55.5611 87.3894 55.3362C89.8479 53.3117 93.424 53.7616 95.212 56.011C97.2235 58.4854 97 61.8596 94.5415 63.8841C91.4124 66.5834 88.2834 69.2827 84.9309 71.9821C81.3548 75.1313 77.5553 78.0556 73.9793 81.4297C70.4032 84.5789 66.3802 86.1536 61.6866 86.3785C60.7926 86.3785 60.1221 85.9286 59.8986 85.0288C59.8986 84.354 60.3456 83.6792 61.2396 83.4542C62.3571 83.2293 63.4747 83.2293 64.5922 83.0043C67.0507 82.5545 69.2857 81.4297 71.0737 79.8551C78.2258 73.7816 85.1544 67.9331 92.3064 61.8596C93.6475 60.7348 93.871 58.9353 92.977 57.8106C91.8594 56.6859 90.2949 56.4609 88.9539 57.5856C84.4839 61.1847 80.2373 65.0088 75.7673 68.8328C74.4263 69.9576 73.0852 70.4075 71.2972 70.4075C67.4977 70.4075 63.9217 70.4075 60.1221 70.4075C59.6751 70.4075 59.2281 70.6324 58.7811 70.8573C57.4401 71.9821 56.0991 72.6569 54.5346 72.6569C50.0645 72.6569 45.5945 72.6569 40.9009 72.6569C39.7834 72.6569 39.3364 71.9821 39.3364 71.0823C39.3364 70.1825 40.0069 69.5077 41.1244 69.5077C45.1475 69.5077 49.1705 69.5077 53.1935 69.5077C53.6406 69.5077 54.0876 69.5077 54.3111 69.5077C56.3226 69.2827 57.8871 67.7081 57.8871 65.6836C57.8871 63.6591 56.3226 62.0845 54.3111 62.0845C52.076 62.0845 49.841 62.0845 47.606 62.0845C42.9124 62.0845 38.2189 62.0845 33.7488 62.0845C30.6198 62.0845 27.7143 62.7593 24.8088 64.109C24.5853 64.109 24.3617 64.334 24.3617 64.334C23.4677 64.5589 22.7972 64.334 22.3502 63.6591C21.9032 62.9843 22.3502 62.0845 23.0207 61.6346C25.0323 60.7348 27.2673 60.06 29.5023 59.3852C31.0668 58.9353 32.6313 58.9353 34.1959 58.9353C40.9009 58.9353 47.3825 58.7104 54.0876 58.9353C55.8756 58.9353 57.2166 58.4854 58.5576 57.3607C61.4631 54.6614 64.5922 52.187 67.7212 49.4876C69.7327 47.6881 72.4147 47.6881 74.6498 49.0377C75.5438 50.3874 75.9908 51.0622 76.8848 53.3117ZM64.5922 67.7081C67.2742 67.7081 69.7327 67.7081 72.1912 67.7081C72.6382 67.7081 73.0853 67.4832 73.5323 67.2582C76.6613 64.5589 79.7903 61.8596 82.9193 59.1602C84.2604 58.0355 83.8134 56.011 82.4724 55.1112C81.3548 54.4364 80.2373 54.6614 79.1198 55.5611C77.3318 56.9108 75.7673 58.4854 73.9793 60.06C71.0737 62.0845 67.9447 64.7838 64.5922 67.7081ZM59.0046 61.4097C60.3456 62.7593 61.2396 64.5589 61.2396 66.5834C61.4631 66.3585 61.6866 66.1335 61.9101 65.9086C65.4862 62.7593 69.0622 59.8351 72.8617 56.6859C74.2028 55.5611 74.4263 53.9865 73.5323 52.6369C72.4147 51.2872 70.8502 51.2872 69.5092 52.4119C67.0507 54.4364 64.5922 56.4609 62.3571 58.4854C61.0161 59.6101 60.1221 60.5099 59.0046 61.4097Z" fill="black"/>
<path d="M55.4286 84.354C56.3226 84.354 56.7696 84.8039 56.9931 85.7037C57.2166 86.3785 56.5461 87.2783 55.8756 87.2783C54.0876 87.5032 52.076 87.7282 50.288 87.9531C47.3825 88.403 44.7005 88.6279 41.7949 89.0778C41.3479 89.0778 41.1244 89.5277 40.9009 89.7527C37.9954 93.3518 35.0899 96.7259 32.1843 100.325C31.5138 101.225 30.8433 101.45 30.1728 101C29.2788 100.55 29.2788 99.4253 29.9493 98.5255C32.4078 95.6012 34.6429 92.9019 37.1014 89.9776C37.7719 89.0778 38.4424 88.403 39.1129 87.5032C39.5599 86.8284 40.2304 86.3785 41.1244 86.3785C45.818 85.9286 50.5115 85.2538 55.2051 84.8039C55.2051 84.354 55.4286 84.354 55.4286 84.354Z" fill="black"/>
<path d="M20.3387 67.0333C19.8917 67.4832 19.8917 67.9331 19.4447 68.3829C17.4332 70.4074 15.8687 72.8818 14.5276 75.3562C13.6336 76.9308 12.5161 78.5054 11.3986 79.8551C8.71659 83.4542 5.81106 86.8284 3.12903 90.4275C2.90553 90.6524 2.68203 90.8774 2.68203 91.1023C2.01152 91.7772 1.34101 91.7772 0.670507 91.3273C1.15484e-07 90.8774 -0.223502 89.9776 0.447005 89.3028C1.78802 87.7282 3.12903 85.9286 4.24654 84.354C6.48157 81.4297 8.94009 78.5054 11.1751 75.5812C11.6221 75.1313 11.8456 74.4564 12.2926 73.7816C13.6336 70.8573 15.4217 68.3829 17.6567 66.3584C18.1037 65.9086 18.7742 65.6836 19.4447 65.9086C19.6682 66.1335 19.8917 66.5834 20.3387 67.0333Z" fill="black"/>
<path d="M50.5115 -6.24955e-05C51.4055 0.224882 52.2995 0.449826 53.1935 0.67477C65.9332 3.82399 71.9677 18.8953 64.8157 29.9175C62.1336 34.1915 59.2281 38.6904 56.5461 42.9643C56.3226 43.4142 56.0991 44.089 56.0991 44.7639C55.8756 45.6636 55.6521 46.5634 55.6521 47.4632C55.6521 47.6881 55.6521 48.138 55.6521 48.363C55.6521 49.7126 55.6521 51.2872 55.6521 52.6369C55.6521 55.1113 53.864 56.9109 51.4055 56.9109C49.6175 56.9109 47.8295 56.9109 46.0415 56.9109C43.5829 56.6859 41.7949 54.8864 41.7949 52.412C41.7949 51.5122 41.7949 50.3875 41.7949 49.4877C41.7949 48.363 41.5714 47.4632 41.3479 46.3385C41.3479 46.1135 41.1244 45.8886 41.3479 45.6636C41.5714 44.089 40.9009 42.7394 40.0069 41.3897C37.5484 37.5656 35.0899 33.5166 32.4078 29.6926C31.0668 27.6681 30.1728 25.1937 29.7258 22.7193C29.7258 22.4944 29.7258 22.2694 29.7258 22.0445C29.7258 21.1447 30.1728 20.4699 30.8433 20.4699C31.7373 20.2449 32.4078 20.6948 32.6313 21.5946C33.0783 24.7438 34.6429 27.6681 36.4309 30.1425C38.6659 33.7416 40.9009 37.3407 43.3594 40.7149C44.0299 41.8396 44.4769 42.7394 44.2534 44.089C44.2534 44.314 44.2534 44.7639 44.2534 44.9888H44.477C44.2534 40.265 44.0299 35.5411 43.5829 30.5924C43.1359 30.5924 42.6889 30.5924 42.2419 30.5924C40.0069 30.5924 38.2189 28.7928 38.2189 26.5434C38.2189 24.069 39.7834 22.2694 42.0184 22.2694C44.2534 22.0445 46.0415 23.844 46.265 26.0935C46.265 26.5434 46.265 27.2182 46.4885 27.893C47.159 27.893 48.053 27.893 48.7235 27.893C49.394 27.893 50.0645 27.893 50.9585 27.893C50.9585 26.0935 51.182 24.2939 52.7465 23.1692C53.417 22.7193 54.5346 22.2694 55.4286 22.4944C57.6636 22.4944 59.2281 24.2939 59.2281 26.5434C59.2281 27.893 58.7811 29.2427 57.4401 29.9175C56.3226 30.5924 54.9816 30.5924 53.6405 31.0423C53.417 35.5411 53.1935 40.265 52.7465 44.9888H52.97C52.97 44.7639 53.1935 44.7639 52.97 44.5389C52.7465 42.9643 53.417 41.6146 54.311 40.265C56.9931 36.216 59.6751 32.167 62.1336 27.893C65.4862 22.2694 65.7097 16.4209 62.5806 10.7973C59.2281 5.17366 54.0875 2.24938 47.606 2.69927C40.0069 2.92421 34.1958 7.87299 32.6313 15.2962C32.4078 16.1959 32.1843 16.8708 31.2903 16.8708C30.1728 17.0957 29.5023 15.971 29.7258 14.8463C30.8433 9.4476 33.7488 5.17366 38.6659 2.24938C40.9009 0.899715 43.3594 0.224882 46.0415 -0.225007C46.265 -0.225007 46.4885 -0.449951 46.712 -0.449951C47.8295 -6.24955e-05 49.1705 -6.24955e-05 50.5115 -6.24955e-05ZM50.5115 31.2672C49.1705 31.2672 47.8295 31.2672 46.4885 31.2672C46.712 35.991 47.159 40.7149 47.3825 45.4387C48.2765 45.4387 48.947 45.4387 49.841 45.4387C50.0645 40.7149 50.288 35.991 50.5115 31.2672ZM44.477 48.5879C44.477 49.9376 44.477 51.2872 44.477 52.6369C44.477 53.5367 45.1475 53.9866 45.818 53.9866C47.606 53.9866 49.1705 53.9866 50.9585 53.9866C51.629 53.9866 52.2995 53.7616 52.2995 52.8619C52.2995 51.5122 52.2995 49.9376 52.2995 48.363C49.841 48.5879 47.159 48.5879 44.477 48.5879ZM43.3594 28.118C43.3594 27.6681 43.3594 27.2182 43.1359 26.7683C43.1359 26.0935 42.6889 25.6436 42.0184 25.6436C41.3479 25.6436 40.9009 26.0935 40.9009 26.7683C40.9009 27.4431 41.1244 27.893 41.7949 28.118C42.2419 28.3429 42.6889 28.118 43.3594 28.118ZM53.864 28.118C55.4286 28.3429 56.0991 27.893 56.0991 26.9933C56.0991 26.3184 55.6521 25.6436 54.9816 25.6436C54.0875 25.8685 53.6405 26.5434 53.864 28.118Z" fill="#1E88C9"/>
<path d="M20.5622 8.9978C21.9032 9.67264 23.4677 10.1225 24.8088 10.7974C25.0323 11.0223 25.2558 11.9221 25.0323 12.372C24.8088 13.0468 24.1382 13.4967 23.4677 13.2717C22.3502 12.8219 21.0092 12.372 19.8917 11.6971C19.4447 11.4722 19.2212 10.7974 19.2212 10.1225C19.2212 9.44769 19.8917 8.9978 20.5622 8.9978Z" fill="black"/>
<path d="M20.3387 33.2916C19.8917 32.8418 19.2212 32.3919 19.2212 31.942C19.2212 31.4921 19.4447 30.5923 19.8917 30.3674C21.0092 29.6925 22.3502 29.4676 23.4677 29.0177C24.1382 28.7928 24.8088 29.0177 25.0323 29.6925C25.2558 30.3674 25.2558 31.0422 24.8088 31.2671C23.4677 32.1669 21.9032 32.6168 20.3387 33.2916Z" fill="black"/>
<path d="M78.0023 31.2671C78.0023 32.6168 77.1083 33.2916 76.2143 33.0667C75.0968 32.6168 73.9793 32.1669 72.6382 31.717C71.9677 31.492 71.5207 30.5923 71.7442 29.9174C71.9677 29.0177 72.6382 28.7927 73.5323 29.0177C74.8733 29.4675 75.9908 29.9174 77.1083 30.3673C77.5553 30.5923 77.7788 31.0422 78.0023 31.2671Z" fill="black"/>
<path d="M78.0023 10.7972C77.7788 11.0221 77.5553 11.6969 77.1083 11.9219C75.9908 12.3718 74.8733 12.8217 73.7557 13.2715C72.8617 13.4965 72.4147 13.2715 71.9677 12.3718C71.5207 11.6969 71.9677 10.7972 72.6382 10.5722C73.7557 10.1223 74.8733 9.67243 76.2143 9.22254C77.1083 8.77265 77.7788 9.44749 78.0023 10.7972Z" fill="black"/>
<path d="M19.6682 22.4943C18.9977 22.4943 18.5507 22.4943 17.8802 22.4943C16.9862 22.4943 16.5392 21.8195 16.5392 21.1447C16.5392 20.4698 16.9862 19.795 17.6567 19.5701C18.9977 19.5701 20.3387 19.5701 21.6797 19.5701C22.3502 19.5701 22.7972 20.2449 22.7972 21.1447C22.7972 22.0445 22.3502 22.4943 21.4562 22.4943C21.0092 22.4943 20.3387 22.4943 19.6682 22.4943Z" fill="black"/>
<path d="M77.3318 22.4943C76.6613 22.4943 75.9908 22.4943 75.5438 22.4943C74.6498 22.4943 74.2028 22.0445 74.2028 21.1447C74.2028 20.2449 74.6498 19.795 75.3203 19.5701C76.6613 19.5701 78.0023 19.5701 79.3433 19.5701C80.2373 19.5701 80.4608 20.2449 80.4608 21.1447C80.4608 22.0445 80.0138 22.4943 79.1198 22.4943C78.4493 22.4943 78.0023 22.4943 77.3318 22.4943Z" fill="black"/>
</g>
<defs>
<clipPath id="clip0_47_1738">
<rect width="97" height="101" fill="white"/>
</clipPath>
</defs>
</svg>
