<svg width="101" height="52" viewBox="0 0 101 52" fill="none" xmlns="http://www.w3.org/2000/svg">
<g clip-path="url(#clip0_2_738)">
<path fill-rule="evenodd" clip-rule="evenodd" d="M13.2459 14.9499C14.9016 14.7874 19.7033 12.1874 22.6836 9.91244C25.0016 8.12494 25.3328 6.49994 24.3393 6.01244C23.3459 5.52494 21.1934 6.49994 19.041 8.12494C16.8885 9.74994 14.2393 12.8374 13.2459 14.9499ZM0 15.2749C2.81475 17.7124 6.78852 16.8999 6.78852 16.8999C6.78852 16.8999 7.61639 14.1374 9.10656 11.6999C10.7623 8.93744 16.2262 3.41244 22.1869 2.59994C28.1475 1.62494 29.8033 3.41244 29.8033 5.19994C29.8033 6.98744 28.4787 10.8874 22.6836 13.9749C16.8885 17.0624 12.7492 17.7124 12.7492 17.7124C12.7492 17.7124 12.5836 18.1999 12.7492 19.0124C12.9148 19.8249 13.0803 22.0999 16.2262 22.9124C19.3721 23.7249 23.677 21.6124 27.8164 18.0374C31.9557 14.4624 33.4459 12.1874 42.2213 6.82494C50.9967 1.46244 65.5672 -1.46256 79.1443 0.812441C92.8869 3.08744 98.1852 8.77494 100.172 12.9999C102.159 17.2249 100.669 22.2624 96.8606 26.4874C93.218 30.7124 86.7607 33.6374 77.323 33.1499C68.0508 32.6624 63.5803 25.6749 64.5738 26.8124C65.7328 27.9499 57.2885 20.9624 67.2229 28.2749C73.3492 32.8249 81.1311 32.4999 87.0918 30.2249C90.5688 28.7624 93.218 26.4874 95.0393 24.2124C99.6754 18.1999 96.1984 10.5624 86.2639 6.49994C83.4492 5.36244 80.6344 4.54994 77.4885 4.06244C70.2033 2.92494 61.9246 3.41244 52.3213 5.68744C38.4131 8.93744 31.2934 18.3624 28.8098 20.6374C26.3262 22.7499 21.5246 27.2999 17.2197 28.2749C12.9148 29.2499 8.77541 27.6249 7.28525 25.0249C5.79508 22.4249 6.45738 18.8499 6.45738 18.8499C6.45738 18.8499 5.96066 18.8499 4.47049 18.3624C2.98033 17.8749 1.82131 17.0624 0 15.2749Z" fill="black"/>
<path fill-rule="evenodd" clip-rule="evenodd" d="M34.4394 20.9625H39.9033L37.0885 13.4875L34.4394 20.9625ZM34.1082 22.1L32.4525 26.65C32.4525 26.8125 32.2869 27.1375 32.2869 27.3H30.6312C30.7967 27.1375 30.9623 26.8125 30.9623 26.65L36.5918 11.375C36.5918 11.2125 36.7574 10.8875 36.7574 10.725H39.241C39.241 10.8875 39.241 11.05 39.4066 11.2125L45.2017 26.4875C45.2017 26.65 45.3672 26.975 45.5328 27.1375H42.2213C42.2213 26.975 42.2213 26.65 42.0558 26.4875L40.4 21.9375H34.1082V22.1Z" fill="black"/>
<path fill-rule="evenodd" clip-rule="evenodd" d="M46.0295 26.325L46.5262 24.375C47.0229 24.7 47.3541 25.025 47.6852 25.35C48.5131 26 49.5065 26.325 50.5 26.325C51.4934 26.325 52.3213 26 52.9836 25.35C53.4803 24.8625 53.8115 24.2125 53.8115 23.4C53.8115 22.425 53.4803 21.775 52.6524 21.125C52.3213 20.8 51.4934 20.475 50.1688 19.825C48.8442 19.175 47.8508 18.525 47.1885 17.875C46.5262 17.0625 46.1951 16.25 46.1951 15.1125C46.1951 14.1375 46.5262 13.325 47.0229 12.675C48.0164 11.2125 49.6721 10.5625 51.8246 10.5625C53.1492 10.5625 54.4737 10.8875 55.7983 11.5375L55.3016 13.325C53.977 12.5125 52.818 12.025 51.8246 12.025C50.9967 12.025 50.3344 12.35 49.6721 12.8375C49.1754 13.325 49.0098 13.8125 49.0098 14.4625C49.0098 15.1125 49.1754 15.7625 49.6721 16.0875C50.1688 16.575 50.9967 17.0625 52.4869 17.7125C53.977 18.3625 55.136 19.175 55.6328 19.825C56.2951 20.6375 56.6262 21.6125 56.6262 22.75C56.6262 23.725 56.2951 24.5375 55.7983 25.35C54.8049 26.975 53.1492 27.7875 50.6655 27.7875C49.8377 27.7875 49.0098 27.625 48.3475 27.4625C47.6852 27.1375 47.0229 26.8125 46.0295 26.325Z" fill="black"/>
<path fill-rule="evenodd" clip-rule="evenodd" d="M79.1443 13.8125V26.4875C79.1443 26.8125 79.1443 26.975 79.3099 27.3H77.8197C77.8197 27.1375 77.9853 26.8125 77.9853 26.4875V11.5375C77.9853 11.2125 77.9853 10.8875 77.8197 10.725H80.4689C80.4689 10.8875 80.6345 11.05 80.8 11.375L90.0722 24.05V11.5375C90.0722 11.2125 90.0722 11.05 89.9066 10.725H91.3968C91.3968 10.8875 91.2312 11.2125 91.2312 11.5375V26.65C91.2312 26.975 91.2312 27.3 91.3968 27.4625H88.9132C88.9132 27.3 88.7476 27.1375 88.582 26.8125L79.1443 13.8125Z" fill="black"/>
<path fill-rule="evenodd" clip-rule="evenodd" d="M70.0377 10.2374C72.1901 11.0499 74.0114 12.9999 74.8393 15.2749H70.0377V10.2374ZM64.9049 9.9124C65.5672 9.7499 66.2295 9.5874 66.8918 9.5874C67.5541 9.5874 68.3819 9.7499 69.0442 9.9124V15.2749H64.9049V9.9124ZM59.1098 15.1124C60.1032 12.8374 61.759 11.0499 63.9114 10.0749V15.1124H59.1098ZM75.6672 19.0124C75.6672 24.2124 71.859 28.4374 67.0573 28.4374C62.2557 28.4374 58.4475 24.2124 58.4475 19.0124C58.4475 18.0374 58.6131 16.8999 58.9442 16.0874H75.336C75.5016 17.0624 75.6672 18.0374 75.6672 19.0124Z" fill="#1E88C9"/>
<path d="M16.8886 41.925C16.8886 43.0625 16.5574 44.3625 15.2328 45.0125C15.0672 44.6875 14.7361 44.2 14.5705 43.875V44.525H12.0869C11.9213 44.6875 11.9213 44.6875 11.7558 44.85C12.0869 45.175 12.4181 45.5 12.5836 45.9875C12.9148 45.6625 13.2459 45.175 13.4115 45.0125L14.5705 45.6625C14.0738 46.15 13.5771 46.6375 13.0804 46.9625C13.7427 47.45 14.5705 47.9375 15.0672 48.425L14.0738 49.5625C13.9082 49.2375 13.5771 48.9125 13.2459 48.75C13.2459 49.8875 13.0804 50.8625 12.7492 51.1875C12.4181 51.675 11.9213 51.8375 11.259 51.8375C11.0935 51.8375 10.7623 51.8375 10.4312 51.8375C10.4312 51.5125 10.2656 50.8625 10.1 50.5375C10.4312 50.5375 10.7623 50.5375 11.0935 50.5375C11.4246 50.5375 11.5902 50.5375 11.7558 50.2125C11.9213 50.05 12.0869 49.5625 12.0869 49.075C11.259 49.8875 10.1 50.5375 9.10659 51.025C8.94101 50.7 8.60987 50.2125 8.27872 49.8875C9.60331 49.4 11.0935 48.5875 11.9213 47.6125C11.5902 47.45 11.5902 47.2875 11.4246 47.125C10.5968 47.775 9.60331 48.425 8.77544 48.9125C8.60987 48.5875 8.27872 48.1 8.11314 47.9375C9.10659 47.6125 10.2656 46.8 10.9279 46.15C10.7623 45.9875 10.7623 45.825 10.5968 45.825C10.1 46.3125 9.43773 46.6375 8.94101 46.8C8.77544 46.6375 8.27872 46.15 7.94757 45.825C8.77544 45.5 9.60331 45.0125 10.2656 44.525H8.27872V43.225H9.60331C9.43773 42.9 9.27216 42.4125 8.94101 42.25L9.93446 41.7625H8.44429V40.4625H10.5968C10.4312 40.1375 10.2656 39.8125 10.1 39.65L11.4246 39.1625C11.7558 39.65 12.0869 40.1375 12.2525 40.4625H14.4049V41.7625H12.5836L13.7427 42.25C13.5771 42.575 13.2459 42.9 13.0804 43.225H14.5705V43.7125C15.3984 43.225 15.564 42.575 15.564 41.7625V39.8125H19.7033V42.7375C19.7033 43.0625 19.7033 43.225 19.8689 43.225H20.2C20.3656 43.225 20.5312 43.225 20.6967 43.0625C20.6967 43.3875 20.6967 43.875 20.8623 44.3625C20.6967 44.3625 20.3656 44.525 20.2 44.525H19.7033C18.5443 44.525 18.3787 44.0375 18.3787 42.7375V41.275H17.0541V41.925H16.8886ZM10.2656 41.7625C10.5968 42.0875 10.9279 42.575 10.9279 42.9L10.4312 43.0625H11.7558C11.9213 42.575 12.2525 42.0875 12.2525 41.6H10.2656V41.7625ZM20.3656 45.3375C20.0345 47.125 19.3722 48.425 18.5443 49.4C19.2066 49.8875 20.0345 50.375 21.0279 50.5375C20.6967 50.8625 20.3656 51.35 20.0345 51.8375C19.041 51.5125 18.2131 51.025 17.3853 50.375C16.5574 51.025 15.7295 51.5125 14.7361 51.8375C14.5705 51.5125 14.2394 50.8625 13.9082 50.5375C14.9017 50.375 15.7295 49.8875 16.5574 49.4C15.8951 48.5875 15.564 47.6125 15.0672 46.6375L15.7295 46.475H14.7361V45.0125H19.2066H19.5377L20.3656 45.3375ZM16.3918 46.475C16.723 47.125 17.0541 47.775 17.5508 48.425C18.0476 47.775 18.3787 47.125 18.7099 46.475H16.3918Z" fill="black"/>
<path d="M44.5394 49.8875H46.3607V51.025H44.5394V52H42.8836V51.025H34.2738V49.8875H36.2607V46.6375H34.7705V45.5C34.6049 45.3375 34.2738 45.1749 34.1082 45.1749C34.7705 44.5249 34.9361 43.875 34.9361 43.225V42.25H40.0689V44.5249H35.9295C35.764 44.8499 35.5984 45.175 35.4328 45.5H40.7312C40.5656 45.175 40.4 44.6874 40.2344 44.5249C40.8967 44.5249 41.559 44.3625 42.0558 44.2C41.7246 43.875 41.3935 43.55 41.0623 43.225L41.559 43.0625H40.7312V42.25C40.5656 42.0875 40.4 41.7625 40.2344 41.7625C41.2279 41.4375 41.3935 40.9499 41.3935 40.4624V39.8124H45.0361V40.95C45.0361 41.1125 45.0361 41.2749 45.2017 41.2749H45.6984C45.864 41.2749 46.1951 41.2749 46.3607 41.2749C46.3607 41.5999 46.3607 41.925 46.3607 42.25C46.1951 42.25 45.864 42.25 45.5328 42.25H45.0361L45.864 42.575C45.5328 43.225 45.0361 43.8749 44.5394 44.3624C45.2017 44.5249 45.864 44.6875 46.5263 44.6875C46.1951 45.0125 46.0295 45.3375 45.864 45.6625H46.1951V46.7999H44.7049V49.8875H44.5394ZM36.7574 40.7875H34.4394V39.975H36.7574V39.325H38.082V39.975H40.2344V40.7875H38.082V41.1124H39.9033V41.9249H34.7705V41.1124H36.7574V40.7875ZM36.0951 43.0625C36.0951 43.3875 36.0951 43.5499 36.0951 43.7124H36.923V43.0625H36.0951ZM37.7508 46.6375V47.125H42.8836V46.6375H37.7508ZM37.7508 48.4249H42.8836V47.9375H37.7508V48.4249ZM42.8836 49.8875V49.4H37.7508V49.8875H42.8836ZM38.7443 43.0625H37.9164V43.7124H38.7443V43.0625ZM45.5328 45.5C44.7049 45.3375 44.0426 45.175 43.3804 44.85C42.7181 45.175 42.0558 45.3375 41.2279 45.5H45.5328ZM42.5525 40.7875C42.5525 41.275 42.2213 41.7624 41.7246 42.25H44.8705C43.8771 42.25 43.7115 41.7625 43.7115 40.95H42.5525V40.7875ZM42.2213 43.0625C42.3869 43.3875 42.7181 43.5499 43.0492 43.7124C43.3803 43.5499 43.7115 43.3875 43.8771 43.0625H42.2213Z" fill="black"/>
<path d="M64.4082 47.9375C64.2427 47.6125 63.9115 46.9625 63.5804 46.475V51.8375H62.0902V46.9625C61.5935 47.9375 61.0967 48.9125 60.6 49.5625C60.4345 49.075 60.1033 48.425 59.7722 48.1C60.6 47.2875 61.2623 45.8249 61.759 44.5249H59.9377V43.0625H61.9246V41.6C61.4279 41.6 60.9312 41.7625 60.4345 41.7625C60.4345 41.4375 60.1033 40.9499 59.9377 40.4624C61.4279 40.2999 63.2492 39.8125 64.2426 39.325L65.2361 40.625C64.7394 40.7875 64.0771 40.9499 63.4148 41.1124V42.8999H65.2361V44.3624H63.4148V44.5249C63.7459 44.8499 64.9049 46.15 65.2361 46.475L64.4082 47.9375ZM71.0312 48.5875V52H69.3754V48.75L65.2361 49.4L64.9049 47.9375L69.2099 47.125V39.325H70.8656V46.7999L72.1902 46.6375L72.5213 48.1L71.0312 48.5875ZM67.7197 46.6375C67.223 45.9875 66.3951 45.1749 65.5672 44.5249L66.5607 43.5499C67.3886 44.0374 68.382 44.85 68.7131 45.5L67.7197 46.6375ZM68.0508 43.225C67.7197 42.575 66.7263 41.7624 66.064 41.2749L67.0574 40.2999C67.7197 40.7874 68.7131 41.6 69.2099 42.25L68.0508 43.225Z" fill="black"/>
<path d="M90.5689 46.6375C90.0722 46.8 89.5755 46.9625 89.0787 46.9625V50.2125C89.0787 51.025 88.9132 51.35 88.4165 51.675C87.9197 51.8375 87.2574 52 86.4296 52C86.4296 51.675 86.0984 51.025 85.9329 50.5375C86.4296 50.5375 87.0919 50.5375 87.2574 50.5375C87.423 50.5375 87.5886 50.5375 87.5886 50.2125V47.45L86.264 47.775L85.7673 46.3125C86.264 46.15 86.9263 46.15 87.5886 45.9875V43.55H86.0984V42.0875H87.5886V39.4875H89.2443V42.0875H90.5689V43.55H89.2443V45.5L90.5689 45.175V46.6375ZM98.0197 44.6875C97.523 46.475 96.6951 47.9375 95.5361 49.075C96.364 49.725 97.523 50.05 98.682 50.375C98.3509 50.7 97.8541 51.35 97.6886 51.675C96.364 51.35 95.205 50.7 94.3771 50.05C93.3837 50.7 92.0591 51.35 90.7345 51.675C90.5689 51.1875 90.2378 50.5375 89.9066 50.2125C91.0656 49.8875 92.2246 49.5625 93.2181 48.9125C92.3902 47.9375 91.7279 46.9625 91.2312 45.6625L91.5623 45.5H90.9001V44.0375H93.5492V42.4125H90.5689V40.95H93.5492V39H95.205V40.95H98.1853V42.4125H95.205V44.0375H96.8607H97.1919L98.0197 44.6875ZM92.7214 45.825C93.0525 46.6375 93.7148 47.45 94.3771 48.2625C95.0394 47.6125 95.7017 46.8 96.0328 45.825H92.7214Z" fill="black"/>
</g>
<defs>
<clipPath id="clip0_2_738">
<rect width="101" height="52" fill="white"/>
</clipPath>
</defs>
</svg>
